<svg xmlns="http://www.w3.org/2000/svg" viewBox="0 0 64 64">
  <defs><clipPath id="r"><rect width="64" height="64" rx="13"/></clipPath></defs>
  <g clip-path="url(#r)">
    <rect width="64" height="64" fill="#f3efe6"/>
    <rect y="0" width="64" height="4.93" fill="#b31942"/>
    <rect y="9.85" width="64" height="4.93" fill="#b31942"/>
    <rect y="19.69" width="64" height="4.93" fill="#b31942"/>
    <rect y="29.54" width="64" height="4.93" fill="#b31942"/>
    <rect y="39.38" width="64" height="4.93" fill="#b31942"/>
    <rect y="49.23" width="64" height="4.93" fill="#b31942"/>
    <rect y="59.08" width="64" height="4.93" fill="#b31942"/>
    <rect width="26.9" height="34.5" fill="#0a3161"/>
    <g fill="#f3efe6">
      <circle cx="4.5" cy="4" r="0.9"/><circle cx="11.2" cy="4" r="0.9"/><circle cx="17.9" cy="4" r="0.9"/><circle cx="24.6" cy="4" r="0.9"/>
      <circle cx="7.8" cy="7.9" r="0.9"/><circle cx="14.5" cy="7.9" r="0.9"/><circle cx="21.2" cy="7.9" r="0.9"/>
      <circle cx="4.5" cy="11.8" r="0.9"/><circle cx="11.2" cy="11.8" r="0.9"/><circle cx="17.9" cy="11.8" r="0.9"/><circle cx="24.6" cy="11.8" r="0.9"/>
      <circle cx="7.8" cy="15.7" r="0.9"/><circle cx="14.5" cy="15.7" r="0.9"/><circle cx="21.2" cy="15.7" r="0.9"/>
      <circle cx="4.5" cy="19.6" r="0.9"/><circle cx="11.2" cy="19.6" r="0.9"/><circle cx="17.9" cy="19.6" r="0.9"/><circle cx="24.6" cy="19.6" r="0.9"/>
      <circle cx="7.8" cy="23.5" r="0.9"/><circle cx="14.5" cy="23.5" r="0.9"/><circle cx="21.2" cy="23.5" r="0.9"/>
      <circle cx="4.5" cy="27.4" r="0.9"/><circle cx="11.2" cy="27.4" r="0.9"/><circle cx="17.9" cy="27.4" r="0.9"/><circle cx="24.6" cy="27.4" r="0.9"/>
      <circle cx="7.8" cy="31.3" r="0.9"/><circle cx="14.5" cy="31.3" r="0.9"/><circle cx="21.2" cy="31.3" r="0.9"/>
    </g>
    <rect x="7" y="38.5" width="50" height="16" rx="8" fill="#0a3161" fill-opacity="0.94" stroke="#c9a962" stroke-width="0.8"/>
    <text x="32" y="49.8" text-anchor="middle" font-family="Georgia, 'Times New Roman', serif" font-weight="bold" font-size="9.5" letter-spacing="0.8" fill="#f3efe6">NEXORA</text>
  </g>
</svg>
